<?xml version="1.0" encoding="UTF-8" standalone="no"?>
<!-- Created with Inkscape (http://www.inkscape.org/) -->

<svg
   xmlns:dc="http://purl.org/dc/elements/1.1/"
   xmlns:cc="http://creativecommons.org/ns#"
   xmlns:rdf="http://www.w3.org/1999/02/22-rdf-syntax-ns#"
   xmlns:svg="http://www.w3.org/2000/svg"
   xmlns="http://www.w3.org/2000/svg"
   xmlns:sodipodi="http://sodipodi.sourceforge.net/DTD/sodipodi-0.dtd"
   xmlns:inkscape="http://www.inkscape.org/namespaces/inkscape"
   width="210mm"
   height="297mm"
   id="svg2"
   version="1.1"
   inkscape:version="0.48.4 r9939"
   sodipodi:docname="Nouveau document 1">
  <defs
     id="defs4">
    <inkscape:path-effect
       fuse_tolerance="0"
       vertical_pattern="false"
       prop_units="false"
       tang_offset="0"
       normal_offset="0"
       spacing="0"
       scale_y_rel="false"
       prop_scale="1"
       copytype="single_stretched"
       pattern="m 236.23954,845.24871 10,5 0,-10 z"
       is_visible="true"
       id="path-effect3121"
       effect="skeletal" />
    <inkscape:path-effect
       is_visible="true"
       id="path-effect3119"
       effect="spiro" />
    <inkscape:path-effect
       effect="skeletal"
       id="path-effect3093"
       is_visible="true"
       pattern="M 0,5 10,10 10,0 z"
       copytype="single_stretched"
       prop_scale="1"
       scale_y_rel="false"
       spacing="0"
       normal_offset="0"
       tang_offset="0"
       prop_units="false"
       vertical_pattern="false"
       fuse_tolerance="0" />
    <inkscape:path-effect
       effect="spiro"
       id="path-effect3091"
       is_visible="true" />
    <inkscape:path-effect
       fuse_tolerance="0"
       vertical_pattern="false"
       prop_units="false"
       tang_offset="0"
       normal_offset="0"
       spacing="0"
       scale_y_rel="false"
       prop_scale="1"
       copytype="single_stretched"
       pattern="m 534.33587,332.95038 10,5 0,-10 z"
       is_visible="true"
       id="path-effect3087"
       effect="skeletal" />
    <inkscape:path-effect
       is_visible="true"
       id="path-effect3085"
       effect="spiro" />
    <inkscape:path-effect
       effect="skeletal"
       id="path-effect3059"
       is_visible="true"
       pattern="M 0,5 10,10 10,0 z"
       copytype="single_stretched"
       prop_scale="1"
       scale_y_rel="false"
       spacing="0"
       normal_offset="0"
       tang_offset="0"
       prop_units="false"
       vertical_pattern="false"
       fuse_tolerance="0" />
    <inkscape:path-effect
       effect="spiro"
       id="path-effect3057"
       is_visible="true" />
    <inkscape:path-effect
       fuse_tolerance="0"
       vertical_pattern="false"
       prop_units="false"
       tang_offset="0"
       normal_offset="0"
       spacing="0"
       scale_y_rel="false"
       prop_scale="1"
       copytype="single_stretched"
       pattern="m -38.027927,212.48166 10,5 0,-10 z"
       is_visible="true"
       id="path-effect3053"
       effect="skeletal" />
    <inkscape:path-effect
       is_visible="true"
       id="path-effect3051"
       effect="spiro" />
    <inkscape:path-effect
       effect="skeletal"
       id="path-effect3025"
       is_visible="true"
       pattern="M 0,5 10,10 10,0 z"
       copytype="single_stretched"
       prop_scale="1"
       scale_y_rel="false"
       spacing="0"
       normal_offset="0"
       tang_offset="0"
       prop_units="false"
       vertical_pattern="false"
       fuse_tolerance="0" />
    <inkscape:path-effect
       effect="spiro"
       id="path-effect3023"
       is_visible="true" />
    <inkscape:path-effect
       fuse_tolerance="0"
       vertical_pattern="false"
       prop_units="false"
       tang_offset="0"
       normal_offset="0"
       spacing="0"
       scale_y_rel="false"
       prop_scale="1"
       copytype="single_stretched"
       pattern="m 332.88983,213.36581 10,5 0,-10 z"
       is_visible="true"
       id="path-effect3017"
       effect="skeletal" />
    <inkscape:path-effect
       is_visible="true"
       id="path-effect3015"
       effect="spiro" />
    <inkscape:path-effect
       effect="skeletal"
       id="path-effect2989"
       is_visible="true"
       pattern="M 0,5 10,10 10,0 z"
       copytype="single_stretched"
       prop_scale="1"
       scale_y_rel="false"
       spacing="0"
       normal_offset="0"
       tang_offset="0"
       prop_units="false"
       vertical_pattern="false"
       fuse_tolerance="0" />
    <inkscape:path-effect
       effect="spiro"
       id="path-effect2987"
       is_visible="true" />
    <inkscape:path-effect
       effect="spiro"
       id="path-effect2987-1"
       is_visible="true" />
    <inkscape:path-effect
       effect="skeletal"
       id="path-effect2989-7"
       is_visible="true"
       pattern="m -53.934578,-203.1653 10,5 0,-10 z"
       copytype="single_stretched"
       prop_scale="1"
       scale_y_rel="false"
       spacing="0"
       normal_offset="0"
       tang_offset="0"
       prop_units="false"
       vertical_pattern="false"
       fuse_tolerance="0" />
    <inkscape:path-effect
       effect="spiro"
       id="path-effect3023-0"
       is_visible="true" />
    <inkscape:path-effect
       effect="skeletal"
       id="path-effect3025-9"
       is_visible="true"
       pattern="m -440.3513,-204.3741 10,5 0,-10 z"
       copytype="single_stretched"
       prop_scale="1"
       scale_y_rel="false"
       spacing="0"
       normal_offset="0"
       tang_offset="0"
       prop_units="false"
       vertical_pattern="false"
       fuse_tolerance="0" />
    <inkscape:path-effect
       effect="spiro"
       id="path-effect3057-8"
       is_visible="true" />
    <inkscape:path-effect
       effect="skeletal"
       id="path-effect3059-8"
       is_visible="true"
       pattern="m 84.472136,-327.36218 10,5 0,-10 z"
       copytype="single_stretched"
       prop_scale="1"
       scale_y_rel="false"
       spacing="0"
       normal_offset="0"
       tang_offset="0"
       prop_units="false"
       vertical_pattern="false"
       fuse_tolerance="0" />
    <inkscape:path-effect
       effect="spiro"
       id="path-effect3091-4"
       is_visible="true" />
    <inkscape:path-effect
       effect="skeletal"
       id="path-effect3093-5"
       is_visible="true"
       pattern="m 0,-834.95922 10,5 0,-10 z"
       copytype="single_stretched"
       prop_scale="1"
       scale_y_rel="false"
       spacing="0"
       normal_offset="0"
       tang_offset="0"
       prop_units="false"
       vertical_pattern="false"
       fuse_tolerance="0" />
  </defs>
  <sodipodi:namedview
     id="base"
     pagecolor="#ffffff"
     bordercolor="#666666"
     borderopacity="1.0"
     inkscape:pageopacity="0.0"
     inkscape:pageshadow="2"
     inkscape:zoom="0.74729586"
     inkscape:cx="526.95538"
     inkscape:cy="369.19958"
     inkscape:document-units="px"
     inkscape:current-layer="layer1"
     showgrid="true"
     showguides="false"
     inkscape:window-width="1280"
     inkscape:window-height="968"
     inkscape:window-x="-4"
     inkscape:window-y="-4"
     inkscape:window-maximized="1">
    <inkscape:grid
       type="xygrid"
       id="grid3019" />
  </sodipodi:namedview>
  <metadata
     id="metadata7">
    <rdf:RDF>
      <cc:Work
         rdf:about="">
        <dc:format>image/svg+xml</dc:format>
        <dc:type
           rdf:resource="http://purl.org/dc/dcmitype/StillImage" />
        <dc:title></dc:title>
      </cc:Work>
    </rdf:RDF>
  </metadata>
  <g
     inkscape:label="Calque 1"
     inkscape:groupmode="layer"
     id="layer1">
    <path
       style="fill:#000000;fill-rule:evenodd;stroke:none"
       d="m 53.934578,359.72866 c 4.320852,-14.48294 13.790241,-27.34356 26.256815,-35.74467 12.465859,-8.40215 27.873067,-12.30807 42.758257,-10.89137 14.74948,1.38952 28.60974,7.79703 41.33444,15.52682 0,0 1e-5,0 1e-5,10e-6 12.72246,7.74434 24.60174,16.93207 37.52092,24.70046 10e-6,0 10e-6,1e-5 2e-5,1e-5 13.08554,7.87067 27.22796,14.21584 42.19161,17.75734 14.96723,3.54387 30.78348,4.17995 45.92915,0.79506 15.15417,-3.38711 29.54403,-10.96806 40.30578,-22.39542 10.76867,-11.44287 17.58056,-26.80566 17.84676,-42.71571 0.19158,-17.68139 -7.47512,-34.63369 -18.52397,-48.08854 -11.00478,-13.44217 -24.95748,-23.88102 -39.04025,-33.3537 0,0 -10e-6,-1e-5 -10e-6,-1e-5 -10.89914,-7.45712 -22.98661,-14.70491 -36.9792,-16.71285 -7.0169,-0.96175 -14.34963,-0.3885 -21.18993,2.10317 -6.85219,2.51003 -12.99292,7.02495 -17.32196,13.06543 -4.31396,6.06353 -6.59629,13.47644 -6.41319,20.95563 0.21378,7.47158 2.81825,14.70843 7.16998,20.67219 4.35768,5.93408 10.15151,10.51945 16.43236,13.80911 6.26621,3.28641 12.7997,5.41094 19.07123,7.3615 15.41959,4.84658 30.83917,9.69317 46.25876,14.53975 l 2.92714,-9.562 c -15.49029,-4.61562 -30.98057,-9.23125 -46.47086,-13.84687 -6.24926,-1.88234 -12.2902,-3.6985 -17.6384,-6.45912 -5.33239,-2.75675 -10.17628,-6.39046 -13.58584,-10.99661 -3.41449,-4.57512 -5.56885,-10.17342 -5.77376,-15.78644 -0.23556,-5.60486 1.44026,-11.38193 4.65163,-16.02994 3.19689,-4.67191 8.03577,-8.31912 13.43898,-10.41346 5.41659,-2.11325 11.52299,-2.65032 17.49458,-1.95804 11.98257,1.29991 23.18397,7.99532 34.09486,15.02865 10e-6,10e-6 2e-5,10e-6 3e-5,2e-5 14.00849,9.19098 27.62277,18.97655 38.11911,31.51807 10.44531,12.52041 17.93158,28.07951 17.86311,44.11228 0.0324,14.39999 -6.08146,28.74161 -15.90645,39.53958 -9.8367,10.81868 -23.36755,18.19768 -37.74719,21.66156 -14.39153,3.46689 -29.66763,3.07374 -44.26032,-0.13547 -1e-5,-10e-6 -1e-5,-10e-6 -2e-5,-10e-6 -14.59762,-3.2119 -28.5523,-9.22975 -41.57136,-16.78721 -12.85428,-7.46403 -24.88751,-16.48442 -37.85261,-24.11692 -1e-5,0 -2e-5,-1e-5 -3e-5,-1e-5 -12.9612,-7.64604 -27.18411,-13.91911 -42.25703,-15.13829 -15.22648,-1.21729 -30.787184,3.00374 -43.259221,11.68234 -12.471321,8.67964 -21.769983,21.75779 -25.873931,36.30368 z"
       id="path2985"
       inkscape:path-effect="#path-effect2987;#path-effect2989"
       inkscape:original-d="m 53.934578,359.72866 c 44.472371,-57.71946 45.418591,-52.04214 69.074112,-47.31103 23.65551,4.7311 27.4404,41.6337 79.48253,39.74126 52.04214,-1.89244 157.07263,-1.89244 142.87932,-45.41859 -14.19331,-43.52615 -20.81685,-114.4927 -56.77324,-78.53631 -35.95638,35.95638 -82.3212,39.74126 -35.95638,53.93457 46.36481,14.19331 46.36481,14.19331 46.36481,14.19331"
       inkscape:connector-curvature="0" />
    <path
       style="fill:#000000;fill-rule:evenodd;stroke:none"
       d="m 627.0371,359.92917 c -4.10395,-14.54589 -13.40261,-27.62403 -25.87393,-36.30368 -12.47204,-8.6786 -28.03274,-12.89963 -43.25922,-11.68234 -15.07293,1.21918 -29.29584,7.49226 -42.25704,15.13829 -1e-5,1e-5 -1e-5,1e-5 -2e-5,1e-5 -12.9651,7.63249 -24.99832,16.65288 -37.8526,24.11691 0,1e-5 -10e-6,1e-5 -10e-6,1e-5 -13.01906,7.55746 -26.97374,13.57531 -41.57136,16.78721 -14.5927,3.20922 -29.8688,3.60237 -44.26034,0.13548 -14.37964,-3.46388 -27.91049,-10.84288 -37.74719,-21.66156 -9.82499,-10.79797 -15.93887,-25.13959 -15.90645,-39.53958 -0.0685,-16.03277 7.4178,-31.59187 17.86311,-44.11228 10.49635,-12.54153 24.11064,-22.3271 38.11914,-31.51809 10.91089,-7.03333 22.11229,-13.72874 34.09486,-15.02865 5.97159,-0.69228 12.07799,-0.15521 17.49458,1.95804 1e-5,1e-5 2e-5,1e-5 3e-5,1e-5 5.4032,2.09434 10.24206,5.74155 13.43895,10.41345 3.21137,4.64801 4.88719,10.42508 4.65163,16.02994 -0.20491,5.61302 -2.35926,11.21131 -5.77375,15.78642 0,1e-5 -1e-5,1e-5 -1e-5,2e-5 -3.40956,4.60615 -8.25345,8.23986 -13.58584,10.99661 -5.3482,2.76062 -11.38914,4.57678 -17.6384,6.45912 -15.49029,4.61562 -30.98057,9.23125 -46.47086,13.84687 l 2.92714,9.562 c 15.41959,-4.84658 30.83917,-9.69317 46.25876,-14.53975 6.27153,-1.95056 12.80502,-4.07509 19.07123,-7.3615 6.28085,-3.28966 12.07468,-7.87503 16.43236,-13.80911 4.35173,-5.96376 6.9562,-13.20061 7.16998,-20.67219 0.1831,-7.47919 -2.09923,-14.8921 -6.41319,-20.95563 -4.32903,-6.04047 -10.46975,-10.55539 -17.32193,-13.06542 -1e-5,0 -2e-5,0 -3e-5,-1e-5 -6.8403,-2.49167 -14.17303,-3.06492 -21.18993,-2.10317 -13.99259,2.00794 -26.08006,9.25573 -36.9792,16.71285 -10e-6,1e-5 -2e-5,1e-5 -3e-5,2e-5 -14.08276,9.47267 -28.03545,19.91152 -39.04023,33.35369 -11.04885,13.45485 -18.71555,30.40715 -18.52397,48.08854 0.2662,15.91005 7.07809,31.27284 17.84676,42.71571 10.76175,11.42736 25.15161,19.00831 40.30578,22.39542 15.14567,3.38489 30.96191,2.74881 45.92913,-0.79506 10e-6,0 2e-5,0 2e-5,0 14.96365,-3.5415 29.10607,-9.88667 42.19161,-17.75734 1e-5,-10e-6 2e-5,-10e-6 3e-5,-2e-5 12.91918,-7.76838 24.79845,-16.95612 37.52091,-24.70045 12.7247,-7.7298 26.58497,-14.13731 41.33445,-15.52683 14.88519,-1.4167 30.2924,2.48922 42.75826,10.89137 12.46657,8.40111 21.93596,21.26173 26.25681,35.74467 z"
       id="path2985-4"
       inkscape:path-effect="#path-effect3015;#path-effect3017"
       inkscape:original-d="m 627.0371,359.92917 c -44.47237,-57.71946 -45.41859,-52.04214 -69.07411,-47.31103 -23.65551,4.7311 -27.4404,41.6337 -79.48253,39.74126 -52.04214,-1.89244 -157.07263,-1.89244 -142.87932,-45.41859 14.19331,-43.52615 20.81685,-114.4927 56.77324,-78.53631 35.95638,35.95638 82.3212,39.74126 35.95638,53.93457 -46.36481,14.19331 -46.36481,14.19331 -46.36481,14.19331"
       inkscape:connector-curvature="0" />
    <path
       style="fill:#000000;fill-rule:evenodd;stroke:none"
       d="m 610,242.36218 c 13.26905,13.39761 26.5248,26.76342 39.76723,40.09742 0.0712,26.03654 -11.19626,51.86377 -30.2122,69.42845 -14.25988,13.25697 -32.62459,21.8947 -51.79398,25.07011 -19.17288,3.17721 -39.12918,0.95264 -57.34656,-5.74064 -2e-5,-10e-6 -4e-5,-2e-5 -5e-5,-2e-5 -16.95489,-6.23703 -32.54652,-16.39818 -44.34797,-29.95589 -11.79712,-13.55062 -19.75757,-30.55936 -21.67939,-48.3129 0,-1e-5 0,-3e-5 0,-5e-5 -1.92485,-17.73956 2.29406,-36.24667 12.39981,-50.79854 10.08518,-14.54076 26.17686,-25.04711 43.55039,-27.54002 15.10597,-2.19384 31.08855,1.6657 43.42032,10.53988 12.33784,8.86009 21.05456,22.77049 23.55049,37.67889 2.80575,16.12948 -1.59598,32.90565 -6.91187,49.04712 -5.41976,16.13251 -11.98938,32.51178 -13.61287,50.21713 -2.24912,25.79812 7.13445,52.15359 24.61448,71.29527 17.48499,19.11408 42.47648,30.84701 68.30466,32.9113 11.28212,0.92281 22.87115,0.017 33.87668,-3.45125 11.02222,-3.47121 21.33624,-9.68298 29.17718,-18.48376 7.85674,-8.82641 12.88672,-20.30072 13.35583,-32.3499 0.44962,-12.09609 -4.08538,-24.37161 -12.95673,-32.97109 -5.94827,-5.69701 -13.60886,-9.48225 -21.77068,-10.74248 -8.16343,-1.24939 -16.62922,0.0562 -24.05376,3.72299 -7.41952,3.67683 -13.61428,9.62339 -17.59577,16.90923 -3.97141,7.29129 -5.63003,15.73812 -4.70122,24.01102 l 9.93196,-1.16454 c -0.76528,-6.17546 0.44101,-12.68583 3.38281,-18.19425 2.9317,-5.51387 7.67416,-10.1646 13.26618,-12.99355 5.587,-2.83897 12.16136,-3.92478 18.38563,-3.0249 6.22588,0.88904 12.24998,3.78618 16.84395,8.11346 10e-6,10e-6 2e-5,2e-5 4e-5,3e-5 6.91843,6.41456 10.64774,16.38045 10.42845,26.06258 -0.20006,9.73704 -4.39947,19.44256 -10.92478,26.99429 -6.54389,7.58052 -15.55971,13.0793 -25.28771,16.29382 -1e-5,0 -2e-5,0 -3e-5,1e-5 -9.74645,3.21799 -20.30454,4.11312 -30.76301,3.39327 -23.87732,-1.69133 -47.32905,-12.35566 -63.62204,-29.89932 -16.2911,-17.50864 -25.36387,-42.02853 -23.45883,-65.89406 0,-2e-5 10e-6,-3e-5 10e-6,-5e-5 1.23428,-16.45952 7.55634,-32.45677 12.84151,-48.89432 5.38805,-16.42562 9.68384,-34.19372 6.63375,-51.84143 -2.92506,-16.36057 -12.50825,-31.2939 -26.03381,-40.82456 -13.53252,-9.51721 -30.71617,-13.47189 -46.99538,-10.95667 -18.70847,2.92086 -35.64098,14.21328 -46.18994,29.76324 -10e-6,1e-5 -10e-6,2e-5 -2e-5,2e-5 -10.53371,15.54662 -14.75843,34.94474 -12.55393,53.4661 10e-6,2e-5 10e-6,4e-5 10e-6,5e-5 2.20825,18.51342 10.60917,36.02126 22.92327,49.875 12.31219,13.84941 28.37373,24.09785 45.74345,30.28819 18.65739,6.65739 39.0033,8.70808 58.48946,5.29233 19.48725,-3.41714 38.03536,-12.38415 52.36995,-25.96288 19.05163,-18.16146 30.09947,-44.4032 29.7878,-70.57155 C 636.80853,268.9321 623.39761,255.63123 610,242.36218 z"
       id="path3021"
       inkscape:path-effect="#path-effect3023;#path-effect3025"
       inkscape:original-d="m 610,242.36218 c 40,10 40,40 40,40 0,0 10,60 -30,70 -40,10 -90,80 -110,20 -20,-60 -40,-160 -10,-160 30,0 80,20 70,50 -10,30 -40,40 -20,100 20,60 50,120 90,100 40,-20 110,-80 60,-80 -50,0 -60,30 -60,30"
       inkscape:connector-curvature="0" />
    <path
       style="fill:#000000;fill-rule:evenodd;stroke:none"
       d="m 68.114733,240.46974 c -13.397612,13.26905 -26.808535,26.56992 -40.232769,39.90258 -0.31167,26.16835 10.736168,52.41009 29.7878,70.57155 14.334579,13.57872 32.882681,22.54573 52.369916,25.96287 10e-6,10e-6 2e-5,10e-6 3e-5,10e-6 19.48615,3.41575 39.83205,1.36506 58.48943,-5.29232 10e-6,0 2e-5,-1e-5 3e-5,-1e-5 17.36972,-6.19034 33.43126,-16.43878 45.74345,-30.28819 12.3141,-13.85374 20.71502,-31.36158 22.92327,-49.875 0,-1e-5 0,-3e-5 1e-5,-5e-5 2.2045,-18.52136 -2.02022,-37.91948 -12.55393,-53.4661 -10.54895,-15.54997 -27.48147,-26.84238 -46.18993,-29.76325 -1e-5,0 -2e-5,-1e-5 -3e-5,-1e-5 -16.27921,-2.51522 -33.46286,1.43946 -46.99538,10.95667 -13.52556,9.53066 -23.10875,24.46399 -26.03381,40.82456 -3.05009,17.64771 1.2457,35.41581 6.63375,51.84143 5.28517,16.43755 11.60723,32.4348 12.84151,48.89432 1.90506,23.86554 -7.16771,48.38546 -23.45882,65.89411 -16.292988,17.54366 -39.744717,28.20799 -63.622034,29.89932 -10.458473,0.71985 -21.016563,-0.17528 -30.7630154,-3.39327 -9.7280135,-3.21452 -18.7438416,-8.7133 -25.2877336,-16.29383 -6.525315,-7.55173 -10.724723,-17.25725 -10.924781,-26.99429 -0.219298,-9.68213 3.510018,-19.64802 10.428451,-26.06258 1.1e-5,-10e-6 2.2e-5,-2e-5 3.3e-5,-3e-5 4.593972,-4.32728 10.6180732,-7.22442 16.843957,-8.11346 6.2242633,-0.89988 12.798628,0.18593 18.38563,3.0249 5.592017,2.82895 10.334472,7.47968 13.266181,12.99355 2.941792,5.50842 4.148084,12.01879 3.382804,18.19425 l 9.931962,1.16454 c 0.928808,-8.2729 -0.729809,-16.71973 -4.701219,-24.01102 -3.981494,-7.28584 -10.176254,-13.2324 -17.595773,-16.90923 -7.424535,-3.66679 -15.8903323,-4.97238 -24.0537634,-3.72299 -8.1618106,1.26023 -15.8224076,5.04547 -21.7706726,10.74248 -1.4e-5,2e-5 -2.8e-5,3e-5 -4.2e-5,4e-5 -8.871321,8.59948 -13.406308,20.87498 -12.95669,32.97105 0.469104,12.04918 5.499085,23.52349 13.355826,32.3499 7.840941,8.80078 18.154948,15.01254 29.1771526,18.48375 8.8e-6,0 1.75e-5,1e-5 2.63e-5,1e-5 11.0055371,3.4683 22.5945641,4.37406 33.8766811,3.45125 25.828186,-2.06429 50.81967,-13.79722 68.30466,-32.9113 17.48003,-19.14168 26.8636,-45.49715 24.61448,-71.29527 -1.62349,-17.70535 -8.19311,-34.08462 -13.61287,-50.21713 -5.31589,-16.14147 -9.71762,-32.91764 -6.91187,-49.04712 2.49593,-14.9084 11.21265,-28.8188 23.55049,-37.67889 12.33177,-8.87418 28.31435,-12.73372 43.42032,-10.53988 17.37352,2.49291 33.46519,12.99925 43.55038,27.54 0,1e-5 1e-5,1e-5 1e-5,2e-5 10.10575,14.55187 14.32466,33.05898 12.39981,50.79854 0,2e-5 0,4e-5 0,5e-5 -1.92182,17.75354 -9.88227,34.76228 -21.67939,48.3129 -11.80145,13.55771 -27.39308,23.71886 -44.34797,29.95589 -18.21739,6.69329 -38.17371,8.91788 -57.34661,5.74066 -2e-5,0 -3e-5,-10e-6 -5e-5,-10e-6 -19.169374,-3.17542 -37.534063,-11.81314 -51.793928,-25.0701 -19.015939,-17.56468 -30.283375,-43.39191 -30.2122,-69.42845 13.242432,-13.334 26.498176,-26.69981 39.767231,-40.09742 z"
       id="path3021-4"
       inkscape:path-effect="#path-effect3051;#path-effect3053"
       inkscape:original-d="m 68.114733,240.46974 c -40,10 -40,40 -40,40 0,0 -10,60 30,70 40,10 89.999997,80 109.999997,20 20,-60 40,-160 10,-160 -30,0 -79.999997,20 -70,50 10,30 40,40 20,100 -20,60 -49.999997,120 -89.999997,100 -40.0000005,-20 -110,-80 -60,-80 50,0 60,30 60,30"
       inkscape:connector-curvature="0" />
    <path
       style="fill:#000000;fill-rule:evenodd;stroke:none"
       d="m 20,332.36218 c 41.613932,31.86783 73.667404,76.0085 91.0825,125.32768 17.41608,49.31883 20.15151,103.69475 7.82751,154.41161 -1e-5,2e-5 -2e-5,4e-5 -2e-5,6e-5 -3.91464,16.10053 -9.41241,31.84817 -17.17604,46.41854 -7.681981,14.41216 -17.674998,27.67209 -30.142499,38.0825 -12.533465,10.46575 -27.578931,18.07575 -43.563065,20.88574 -15.971332,2.80943 -32.9283107,0.73534 -47.185942,-6.74931 -13.703689,-7.19882 -24.950937,-19.63827 -29.067054,-34.37197 -2.074879,-7.36972 -2.410266,-15.24682 -0.756937,-22.669 1.650193,-7.4181 5.291761,-14.41815 10.545725,-19.83228 6.24456,-6.47469 14.787236,-10.66174 23.708982,-12.32627 8.9355752,-1.66783 18.3108674,-0.8207 27.115023,1.78914 2.2e-5,0 4.3e-5,10e-6 6.5e-5,2e-5 17.638013,5.1855 32.584172,17.42974 45.776447,30.84145 27.731796,28.34468 48.583375,63.19027 61.786095,100.58318 13.24974,37.54364 18.92796,77.73315 16.61981,117.42189 0,10e-6 0,2e-5 0,3e-5 -3.12785,54.52114 -20.4662,107.39589 -40.328465,158.74601 -6.916218,17.7251 -14.153469,35.2934 -25.606672,49.5684 -7e-6,0 -1.4e-5,0 -2.1e-5,10e-5 -11.392865,14.2003 -27.289517,25.2495 -44.80084,28.1034 -17.4205853,2.9874 -36.178882,-2.458 -50.025346,-13.5861 -13.995707,-11.0808 -22.968842,-27.8703 -31.479669,-44.8096 -6.619151,-13.3571 -13.238301,-26.7142 -19.857451,-40.0713 l -8.944272,4.4722 c 6.714183,13.3095 13.428366,26.6191 20.142549,39.9287 8.556733,17.1958 18.527162,34.9893 34.351666,47.7258 15.950541,12.6706 37.1590656,18.5682 57.318663,15.077 20.090555,-3.6284 37.660654,-15.8618 49.929688,-31.5954 1.5e-5,0 3e-5,0 4.5e-5,0 12.224058,-15.6783 19.732828,-34.0062 26.487395,-51.9312 19.66894,-51.73752 36.7883,-105.5316 39.67153,-161.25403 2.07095,-40.62427 -4.02948,-81.60863 -17.81928,-119.81602 C 111.87623,714.66341 90.333623,679.2917 61.835305,650.55427 48.340127,636.87416 32.574371,624.31117 13.726239,618.77529 c -2.3e-5,-1e-5 -4.6e-5,-1e-5 -6.9e-5,-2e-5 -9.4395256,-2.75101 -19.5471483,-3.56098 -29.296162,-1.69942 -9.760426,1.86442 -19.063016,6.55062 -25.994186,13.78276 -5.796041,6.08129 -9.744188,13.79033 -11.490516,21.95141 -1.743344,8.1577 -1.324786,16.6955 0.985934,24.65668 4.650572,15.91235 16.638216,29.03383 31.226316,36.51866 15.1315855,7.76857 32.841485,9.81805 49.456814,6.75412 16.607512,-3.06425 32.076898,-11.01695 44.876755,-21.88064 12.729285,-10.80408 22.842602,-24.41054 30.539645,-39.126 10e-6,-2e-5 2e-5,-4e-5 3e-5,-6e-5 7.77765,-14.86457 13.23065,-30.83771 17.05919,-47.10985 0,-10e-6 0,-2e-5 0,-4e-5 12.06182,-51.2356 8.88945,-105.9076 -8.95204,-155.30998 C 94.295469,407.91089 61.840009,363.93261 20,332.36218 z"
       id="path3055"
       inkscape:path-effect="#path-effect3057;#path-effect3059"
       inkscape:original-d="m 20,332.36218 c 80,120 120,180 100,280 -20,100 -120,120 -140,100 -20,-20 -80,-80 -20,-80 60,0 80,-20 100,20 20,40 80,160 80,220 0,60 20,140.00002 -40,160.00002 -60,20 -140,60 -160,20 -20,-40 -20,-40 -20,-40"
       inkscape:connector-curvature="0" />
    <path
       style="fill:#000000;fill-rule:evenodd;stroke:none"
       d="m 658.15991,327.95038 c -41.84001,31.57043 -74.29547,75.54871 -92.13795,124.95073 -17.84149,49.40238 -21.01386,104.07438 -8.95204,155.30998 0,3e-5 10e-6,5e-5 10e-6,7e-5 3.82853,16.27213 9.28154,32.24526 17.05918,47.10982 7.69704,14.71548 17.81037,28.32197 30.53967,39.12606 12.79986,10.86369 28.26925,18.81639 44.87676,21.88064 16.61533,3.06393 34.32523,1.01445 49.45681,-6.75412 14.5881,-7.48483 26.57575,-20.60631 31.22632,-36.51866 2.31072,-7.96118 2.72928,-16.49898 0.98593,-24.65668 -1.74632,-8.16108 -5.69447,-15.87012 -11.49051,-21.95141 -6.93117,-7.23214 -16.23376,-11.91834 -25.99419,-13.78276 -9.74901,-1.86156 -19.85663,-1.05159 -29.29616,1.69942 -2e-5,10e-6 -5e-5,10e-6 -7e-5,2e-5 -18.84813,5.53588 -34.61389,18.09887 -48.10906,31.77898 -28.49832,28.73743 -50.04093,64.10914 -63.77482,102.17888 -13.7898,38.20737 -19.89023,79.19172 -17.81928,119.81598 0,2e-5 0,3e-5 0,4e-5 2.88323,55.72243 20.00259,109.51651 39.67153,161.25403 6.75458,17.925 14.26336,36.2529 26.48744,51.9312 12.26903,15.7336 29.83913,27.967 49.92969,31.5954 20.1596,3.4912 41.36812,-2.4064 57.31866,-15.077 15.82451,-12.7365 25.79493,-30.53 34.35167,-47.7258 6.71418,-13.3096 13.42836,-26.6192 20.14255,-39.9287 l -8.94428,-4.4722 c -6.61915,13.3571 -13.2383,26.7142 -19.85745,40.0713 -8.51082,16.9393 -17.48396,33.7288 -31.47967,44.8096 -13.84644,11.1281 -32.60471,16.5735 -50.02528,13.5861 -2e-5,0 -4e-5,0 -6e-5,0 -17.51132,-2.8539 -33.40798,-13.9031 -44.80084,-28.1034 -11.45322,-14.2751 -18.69047,-31.8434 -25.60669,-49.5685 -19.86227,-51.35012 -37.20062,-104.22487 -40.32847,-158.74601 0,-2e-5 0,-5e-5 0,-7e-5 -2.30814,-39.68872 3.37007,-79.87822 16.61981,-117.42185 13.20272,-37.39291 34.0543,-72.2385 61.78609,-100.58318 13.19228,-13.41171 28.13844,-25.65595 45.77645,-30.84145 2e-5,-10e-6 5e-5,-2e-5 7e-5,-2e-5 8.80415,-2.60984 18.17944,-3.45697 27.11502,-1.78914 2e-5,10e-6 4e-5,10e-6 7e-5,10e-6 8.92172,1.66455 17.46437,5.85159 23.70891,12.32626 5.25397,5.41413 8.89553,12.41418 10.54573,19.83228 1.65332,7.42217 1.31794,15.29925 -0.75693,22.66897 0,10e-6 -1e-5,2e-5 -1e-5,3e-5 -4.11612,14.7337 -15.36336,27.17315 -29.06705,34.37197 -14.25764,7.48465 -31.21461,9.55874 -47.18595,6.74931 -15.98413,-2.80999 -31.0296,-10.41999 -43.56306,-20.88574 -12.46748,-10.4104 -22.46049,-23.67031 -30.14247,-38.08244 -10e-6,-2e-5 -2e-5,-4e-5 -3e-5,-6e-5 -7.76364,-14.57039 -13.26142,-30.31805 -17.17606,-46.4186 -12.324,-50.71686 -9.58857,-105.09278 7.82751,-154.41161 17.4151,-49.31918 49.46857,-93.45985 91.0825,-125.32768 z"
       id="path3055-2"
       inkscape:path-effect="#path-effect3085;#path-effect3087"
       inkscape:original-d="m 658.15991,327.95038 c -80,120 -120,180 -100,280 20,100 120,120 140,100 20,-20 80,-80 20,-80 -60,0 -80,-20 -100,20 -20,40 -80,160 -80,220 0,60 -20,140.00002 40,160.00002 60,20 140,60 160,20 20,-40 20,-40 20,-40"
       inkscape:connector-curvature="0" />
    <path
       style="fill:#000000;fill-rule:evenodd;stroke:none"
       d="m 0,972.36218 c 5.3071533,-30.95483 20.105892,-60.20014 41.848378,-82.77721 21.74202,-22.57751 50.365681,-38.42278 80.976882,-44.86592 30.61093,-6.4444 63.13242,-3.47085 92.01587,8.37879 28.88416,11.84785 54.06753,32.54558 71.265,58.5269 10e-6,10e-6 10e-6,2e-5 2e-5,3e-5 17.19962,25.97991 26.38202,57.19528 26.00685,88.28814 -0.37195,31.09289 -10.30041,62.01639 -28.04853,87.47309 -10e-6,0 -2e-5,0 -2e-5,0 -17.74496,25.4588 -43.28842,45.4214 -72.21672,56.4817 -28.92666,11.0645 -61.21398,13.2181 -91.29714,6.124 -11.86699,-2.8092 -23.420539,-7.0141 -33.59889,-13.4234 -10.16556,-6.4059 -19.01978,-15.04 -24.600692,-25.4793 -1.2e-5,0 -2.3e-5,0 -3.5e-5,0 -9.11313,-16.8615 -9.111816,-38.21 -1.448722,-55.8668 5e-6,0 1e-5,0 1.5e-5,0 7.66813,-17.7125 22.78374,-31.9129 40.392914,-40.0844 13.219,-6.1387 27.90559,-8.9697 42.65153,-9.7412 1e-5,0 3e-5,0 4e-5,0 14.9675,-0.7737 30.06248,0.5371 45.0978,2.5662 14.99006,2.0311 29.99812,4.7119 45.23665,6.5694 15.15605,1.8566 30.60544,2.8491 46.05923,1.4651 13.43185,-1.2281 26.47701,-4.1544 39.32436,-6.9651 12.83949,-2.7894 25.57813,-5.4909 38.33231,-6.2808 2e-5,0 5e-5,0 7e-5,0 12.757,-0.7813 25.62969,0.234 37.43456,4.3023 11.7826,4.0525 22.60055,11.1427 30.16743,20.776 7.5746,9.5968 11.96453,21.8017 11.94215,33.9376 0,0 0,0 0,0 0.0194,12.1365 -4.38506,24.2955 -11.8293,33.9723 -7.4338,9.7195 -18.01525,17.0012 -29.52458,21.9515 -11.53136,4.9587 -24.22018,7.5316 -37.10344,10.0911 -33.35486,6.559 -66.70971,13.1181 -100.06457,19.6771 l 1.96116,9.8058 c 33.31181,-6.7743 66.62362,-13.5486 99.93543,-20.3229 12.92842,-2.6029 26.2197,-5.4536 38.86507,-10.9054 12.66379,-5.4586 24.38592,-13.7477 32.94498,-24.9306 8.54597,-11.2223 13.45503,-25.1879 13.39192,-39.3658 -0.1049,-14.1786 -5.19997,-28.0933 -14.00594,-39.091 -8.81627,-10.9644 -20.94696,-18.8603 -34.09649,-23.23763 -13.13091,-4.36279 -27.02957,-5.42145 -40.53703,-4.4551 -3e-5,0 -5e-5,10e-6 -8e-5,10e-6 -13.49953,0.95704 -26.59827,3.79657 -39.44791,6.69722 -12.86567,2.8846 -25.58134,5.8456 -38.37096,7.0732 -14.68852,1.4388 -29.64573,0.5517 -44.55346,-1.1549 -14.99245,-1.7256 -29.99168,-4.3064 -45.18158,-6.2654 -15.26323,-1.97659 -30.77645,-3.20363 -46.32611,-2.31863 -15.35396,0.86459 -30.79588,3.99053 -44.893601,10.59843 -18.826395,8.8303 -34.817856,24.1558 -43.07015,43.3642 -1e-5,0 -2.1e-5,0 -3.2e-5,0 -8.249101,19.2452 -8.008978,42.2085 2.014336,60.6845 6e-6,0 1.3e-5,0 1.9e-5,10e-5 6.217527,11.3477 15.741045,20.565 26.600767,27.2669 10.848672,6.6997 22.930511,11.0335 35.199651,13.8304 31.10075,7.117 64.26402,4.6714 93.93255,-6.8922 29.66691,-11.5677 55.67717,-32.1903 73.6839,-58.3768 18.00356,-26.1887 27.9112,-57.8068 28.08903,-89.52417 0.17461,-31.71737 -9.38129,-63.38131 -27.02386,-89.66468 -1e-5,-2e-5 -3e-5,-4e-5 -4e-5,-6e-5 -17.6447,-26.28191 -43.29671,-47.06539 -72.60263,-58.86783 -29.30667,-11.80066 -62.14521,-14.57135 -92.95757,-7.87781 -1e-5,1e-5 -3e-5,1e-5 -4e-5,1e-5 -30.812098,6.69482 -59.47991,22.82795 -81.161968,45.63521 C 19.72719,911.97207 5.1071596,941.37373 0,972.36218 z"
       id="path3089"
       inkscape:path-effect="#path-effect3091;#path-effect3093"
       inkscape:original-d="m 0,972.36218 c 200,140.00002 140,180.00002 120,180.00002 -20,0 -40,20 -60,-40 -20,-60 -60,-80 40,-100 100,-20.00002 120,-60.00002 180,0 60,60 180,100 80,120 -100,20 -100,20 -100,20"
       inkscape:connector-curvature="0" />
    <path
       style="fill:#000000;fill-rule:evenodd;stroke:none"
       d="m 682.35812,972.65167 c -5.10716,-30.98845 -19.72719,-60.39011 -41.40879,-83.19781 -21.68205,-22.80726 -50.34987,-38.94039 -81.16197,-45.6352 -30.81237,-6.69356 -63.65092,-3.92287 -92.9576,7.87779 -29.30594,11.80245 -54.95795,32.58595 -72.60266,58.86787 0,1e-5 -1e-5,2e-5 -2e-5,3e-5 -17.64256,26.28337 -27.19846,57.94731 -27.02386,89.66465 0.17783,31.7174 10.08546,63.3355 28.08899,89.5242 2e-5,0 3e-5,0 5e-5,0 18.00673,26.1865 44.01699,46.8091 73.6839,58.3768 29.66853,11.5636 62.8318,14.0092 93.93255,6.8922 12.26914,-2.7969 24.35098,-7.1307 35.19965,-13.8304 10.85972,-6.7019 20.38324,-15.9192 26.60077,-27.2669 1e-5,-10e-5 2e-5,-10e-5 4e-5,-10e-5 10.0233,-18.4761 10.26341,-41.4394 2.01428,-60.6845 -8.25229,-19.2084 -24.24375,-34.5339 -43.07015,-43.3642 -14.09772,-6.6079 -29.53964,-9.7338 -44.8936,-10.59843 -15.54966,-0.885 -31.06288,0.34204 -46.32611,2.31863 -15.1899,1.959 -30.18913,4.5398 -45.18158,6.2654 -14.90773,1.7066 -29.86494,2.5937 -44.55346,1.1549 -12.78962,-1.2276 -25.50529,-4.1886 -38.37096,-7.0732 -12.84964,-2.90065 -25.94838,-5.74018 -39.44791,-6.69722 -13.50748,-0.96636 -27.40617,0.0923 -40.53711,4.45509 -13.14953,4.37733 -25.28022,12.27323 -34.09649,23.23763 -8.80597,10.9977 -13.90104,24.9124 -14.00594,39.091 -0.0631,14.1779 4.84595,28.1435 13.39192,39.3658 8.55906,11.1829 20.28119,19.472 32.94498,24.9306 12.64537,5.4518 25.93665,8.3025 38.86507,10.9054 33.31181,6.7743 66.62362,13.5486 99.93543,20.3229 l 1.96116,-9.8058 c -33.35486,-6.559 -66.70971,-13.1181 -100.06457,-19.6771 -12.88326,-2.5595 -25.57208,-5.1324 -37.10344,-10.0911 -11.50933,-4.9503 -22.09078,-12.232 -29.52458,-21.9515 -7.44424,-9.6768 -11.84868,-21.8358 -11.8293,-33.9723 -0.0224,-12.1358 4.36755,-24.3408 11.94215,-33.9376 7.56688,-9.6333 18.38483,-16.7235 30.16743,-20.776 11.80487,-4.0683 24.67756,-5.0836 37.43456,-4.3023 2e-5,0 5e-5,0 7e-5,0 12.75418,0.7899 25.49282,3.4914 38.33231,6.2808 12.84735,2.8107 25.89251,5.737 39.32436,6.9651 15.45379,1.384 30.90318,0.3915 46.05923,-1.4651 15.23853,-1.8575 30.24659,-4.5383 45.23665,-6.5694 15.03532,-2.0291 30.1303,-3.3399 45.0978,-2.5662 14.74596,0.7715 29.43256,3.6025 42.65157,9.7412 17.60917,8.1715 32.72478,22.3719 40.39291,40.0844 10e-6,0 2e-5,0 3e-5,10e-5 7.66309,17.6567 7.66439,39.0052 -1.44875,55.8667 -10e-6,0 -10e-6,0 -2e-5,0 -5.58091,10.4393 -14.43513,19.0734 -24.60069,25.4793 -10.17835,6.4093 -21.7319,10.6142 -33.59889,13.4234 -30.08316,7.0941 -62.37048,4.9405 -91.29715,-6.124 -28.92829,-11.0603 -54.47175,-31.0229 -72.21671,-56.4817 -1e-5,0 -3e-5,-10e-5 -4e-5,-10e-5 -17.74811,-25.4566 -27.67656,-56.3801 -28.04851,-87.473 -0.37517,-31.09285 8.80723,-62.30822 26.00685,-88.28813 17.19747,-25.98133 42.38084,-46.67908 71.26502,-58.52693 28.88343,-11.84964 61.40491,-14.82319 92.01583,-8.3788 10e-6,0 2e-5,0 3e-5,10e-6 30.6112,6.44313 59.23487,22.28841 80.97689,44.86591 21.74249,22.57707 36.54123,51.82238 41.84838,82.77721 z"
       id="path3089-5"
       inkscape:path-effect="#path-effect3119;#path-effect3121"
       inkscape:original-d="m 682.35812,972.65167 c -200,140.00003 -140,180.00003 -120,180.00003 20,0 40,20 60,-40 20,-60 60,-80 -40,-100 -100,-20.00003 -120,-60.00003 -180,0 -60,60 -180,100 -80,120 100,20 100,20 100,20"
       inkscape:connector-curvature="0" />
  </g>
</svg>
