<?xml version="1.0" encoding="UTF-8" standalone="no"?>
<!-- Created with Inkscape (http://www.inkscape.org/) -->

<svg
   xmlns:dc="http://purl.org/dc/elements/1.1/"
   xmlns:cc="http://creativecommons.org/ns#"
   xmlns:rdf="http://www.w3.org/1999/02/22-rdf-syntax-ns#"
   xmlns:svg="http://www.w3.org/2000/svg"
   xmlns="http://www.w3.org/2000/svg"
   xmlns:sodipodi="http://sodipodi.sourceforge.net/DTD/sodipodi-0.dtd"
   xmlns:inkscape="http://www.inkscape.org/namespaces/inkscape"
   width="210mm"
   height="297mm"
   id="svg5335"
   version="1.1"
   inkscape:version="0.48.4 r9939"
   sodipodi:docname="nourriture.svg">
  <defs
     id="defs5337">
    <filter
       inkscape:collect="always"
       id="filter5861"
       x="-0.17940098"
       width="1.358802"
       y="-0.14659043"
       height="1.2931809">
      <feGaussianBlur
         inkscape:collect="always"
         stdDeviation="3.0048169"
         id="feGaussianBlur5863" />
    </filter>
    <filter
       inkscape:collect="always"
       id="filter5867"
       x="-0.14500826"
       width="1.2900165"
       y="-0.10382471"
       height="1.2076494">
      <feGaussianBlur
         inkscape:collect="always"
         stdDeviation="1.6980923"
         id="feGaussianBlur5869" />
    </filter>
    <filter
       inkscape:collect="always"
       id="filter5879"
       x="-0.11388784"
       width="1.2277757"
       y="-0.082667692"
       height="1.1653354">
      <feGaussianBlur
         inkscape:collect="always"
         stdDeviation="3.7582253"
         id="feGaussianBlur5881" />
    </filter>
    <filter
       inkscape:collect="always"
       id="filter5889"
       x="-0.1645317"
       width="1.3290634"
       y="-0.20240201"
       height="1.404804">
      <feGaussianBlur
         inkscape:collect="always"
         stdDeviation="6.0019244"
         id="feGaussianBlur5891" />
    </filter>
    <filter
       inkscape:collect="always"
       id="filter5895"
       x="-0.19035827"
       width="1.3807165"
       y="-0.11869565"
       height="1.2373913">
      <feGaussianBlur
         inkscape:collect="always"
         stdDeviation="5.1004034"
         id="feGaussianBlur5897" />
    </filter>
  </defs>
  <sodipodi:namedview
     id="base"
     pagecolor="#ffffff"
     bordercolor="#666666"
     borderopacity="1.0"
     inkscape:pageopacity="0.0"
     inkscape:pageshadow="2"
     inkscape:zoom="1"
     inkscape:cx="215"
     inkscape:cy="520"
     inkscape:document-units="px"
     inkscape:current-layer="layer1"
     showgrid="true"
     inkscape:window-width="1280"
     inkscape:window-height="968"
     inkscape:window-x="-4"
     inkscape:window-y="-4"
     inkscape:window-maximized="1">
    <inkscape:grid
       type="xygrid"
       id="grid5343" />
  </sodipodi:namedview>
  <metadata
     id="metadata5340">
    <rdf:RDF>
      <cc:Work
         rdf:about="">
        <dc:format>image/svg+xml</dc:format>
        <dc:type
           rdf:resource="http://purl.org/dc/dcmitype/StillImage" />
        <dc:title></dc:title>
      </cc:Work>
    </rdf:RDF>
  </metadata>
  <g
     inkscape:label="Calque 1"
     inkscape:groupmode="layer"
     id="layer1">
    <path
       style="fill:#fdfaf9;stroke:#6a6a6a;stroke-width:1px;stroke-linecap:butt;stroke-linejoin:miter;stroke-opacity:1;fill-opacity:1"
       d="m 290,532.36218 c 70,-80 60,-100 60,-100 0,0 -20,-20 -10,-40 10,-20 40,-30 50,-20 10,10 10,20 0,40 -10,20 20,-30 30,-30 10,0 40,30 30,50 -10,20 -20,40 -50,30 -26.83282,-8.94427 -80,80 -80,80 z"
       id="path5345"
       inkscape:connector-curvature="0"
       sodipodi:nodetypes="ccsssssscc" />
    <path
       style="fill:#c83737;stroke:#000000;stroke-width:1px;stroke-linecap:butt;stroke-linejoin:miter;stroke-opacity:1"
       d="m 320,492.36218 c 0,0 30,-60 -30,-40 -60,20 -140,70 -120,90 20,20 -100,90 10,100 110,10 140,40 190,10 50,-30 60,-80 50,-110 -10,-30 -60,-60 -60,-60 -40,60 -40,60 -40,60 l -30,-10 z"
       id="path5347"
       inkscape:connector-curvature="0" />
    <path
       style="fill:#ffffff;stroke:none;stroke-width:1px;stroke-linecap:butt;stroke-linejoin:miter;stroke-opacity:1;filter:url(#filter5861);opacity:0.94444444000000005"
       d="m 420,402.36218 c 0.66667,0.33334 2.33333,0.33334 2,1 -0.33333,0.66667 -2.18078,-1.7231 -2,-1 0.4714,1.88562 2.23436,3.21351 3,5 0.13313,0.31065 0,4.2329 0,5 0,3.33334 0,6.66667 0,10 0,0.24253 0.0322,2.96784 0,3 -0.2357,0.2357 -0.7643,-0.2357 -1,0 -0.27362,0.27362 0.27124,3.45752 0,4 -0.21082,0.42164 -0.78918,0.57837 -1,1 -0.14907,0.29815 0.14907,0.70186 0,1 -0.42164,0.84328 -1.57836,1.15673 -2,2 -0.14907,0.29815 0.14907,0.70186 0,1 -0.42164,0.84328 -1.57836,1.15673 -2,2 -0.14907,0.29815 0.14907,0.70186 0,1 -0.21082,0.42164 -0.73851,0.60777 -1,1 -0.41345,0.62018 -0.47295,1.47296 -1,2 -0.2357,0.2357 -0.7643,-0.2357 -1,0 -2.06904,2.06904 3.16176,-0.0809 -1,2 -0.29814,0.14907 -0.70186,-0.14907 -1,0 -4.16176,2.08088 1.06904,-0.069 -1,2 -0.2357,0.2357 -0.70186,-0.14907 -1,0 -0.42164,0.21082 -0.57836,0.78918 -1,1 -0.29814,0.14907 -0.66667,0 -1,0 -0.7088,0 -5.74145,-0.12927 -6,0 -0.42164,0.21082 -0.57836,0.78918 -1,1 -0.69073,0.34537 -4.64898,-0.35102 -5,0 -0.2357,0.2357 0,0.66667 0,1 0,1.37212 -0.52498,3.23751 1,4 0.25855,0.12928 5.2912,0 6,0 4.33333,0 8.66667,0 13,0 0.24253,0 2.96784,0.0322 3,0 0.2357,-0.2357 -0.2357,-0.7643 0,-1 0.2357,-0.2357 0.66667,0 1,0 2.33333,0 4.66667,0 7,0 0.33333,0 0.66667,0 1,0 0.33333,0 0.7643,0.2357 1,0 0.2357,-0.2357 -0.2357,-0.7643 0,-1 0.4714,-0.4714 1.5286,0.47141 2,0 0.4714,-0.4714 -0.29814,-1.40371 0,-2 0.21082,-0.42163 0.78918,-0.57836 1,-1 0.14907,-0.29814 -0.14907,-0.70185 0,-1 2.08088,-4.16176 -0.069,1.06904 2,-1 0.5,-0.5 -0.5,-2.5 0,-3 0.2357,-0.2357 0.66667,0 1,0 0.33333,-0.66666 0.7643,-1.29289 1,-2 0.2098,-0.6294 0,-4.09863 0,-5 0,-3.66666 0,-7.33333 0,-11 0,-2 0,-4 0,-6 0,-0.45036 0.15217,-2.69566 0,-3 -0.21082,-0.42163 -0.78918,-0.57836 -1,-1 -0.14907,-0.29814 0.14907,-0.70185 0,-1 -0.13276,-0.26551 -2.73449,-2.86724 -3,-3 -0.29814,-0.14907 -0.7643,0.2357 -1,0 -0.2357,-0.2357 0.2357,-0.7643 0,-1 -0.2357,-0.2357 -0.7643,0.2357 -1,0 -0.2357,-0.2357 0.2357,-0.7643 0,-1 -0.2357,-0.2357 -0.7643,0.2357 -1,0 -0.2357,-0.2357 0.2357,-0.7643 0,-1 -0.52705,-0.52704 -1.37983,-0.58655 -2,-1 -0.39223,-0.26149 -0.57836,-0.78918 -1,-1 -0.29814,-0.14907 -0.7643,0.2357 -1,0 -0.2357,-0.2357 0,-0.66666 0,-1 -1.66667,-0.33333 -3.33333,-0.66666 -5,-1 z"
       id="path5859"
       inkscape:connector-curvature="0" />
    <path
       style="fill:#ffffff;stroke:none;stroke-width:1px;stroke-linecap:butt;stroke-linejoin:miter;stroke-opacity:1;filter:url(#filter5867);opacity:0.92735042999999995"
       d="m 370,382.36218 c 0.33333,0.66667 1.66667,1.66667 1,2 -0.66667,0.33334 -1.41345,-2.62017 -1,-2 1.07814,1.61722 1.92186,3.38279 3,5 0.26149,0.39223 0.78918,0.57837 1,1 0.14907,0.29815 0,0.66667 0,1 0,0.66667 -0.21082,1.36755 0,2 0.14907,0.44722 0.78918,0.57837 1,1 0.14907,0.29815 0,0.66667 0,1 0,0.66667 -0.21082,1.36755 0,2 0.14907,0.44722 0.85093,0.55279 1,1 0.16894,0.50683 0,6.18251 0,7 0,3.33334 0,6.66667 0,10 0,0.33334 0,0.66667 0,1 0,0.33334 0.2357,0.7643 0,1 -0.2357,0.2357 -0.7643,-0.2357 -1,0 -0.4714,0.47141 0.4714,1.5286 0,2 -0.2357,0.2357 -0.7643,-0.2357 -1,0 -1.33333,1.33334 1.66667,1 -1,1 -1.03452,0 -1.38215,-0.2357 -2,1 -0.14907,0.29815 0.2357,0.7643 0,1 -0.4714,0.47141 -1.40372,-0.29814 -2,0 -0.42164,0.21082 -0.57836,0.78918 -1,1 -0.30433,0.15217 -2.54964,0 -3,0 -1.33333,0 -2.66667,0 -4,0 -0.33333,0 -0.66667,0 -1,0 -0.33333,0 -1,0.33334 -1,0 0,-0.0734 2.81651,0.0917 3,0 0.42164,-0.21082 0.57836,-0.78918 1,-1 0.29814,-0.14907 0.70186,0.14907 1,0 0.42164,-0.21082 0.57836,-0.78918 1,-1 0.29814,-0.14907 0.70186,0.14907 1,0 0.42164,-0.21082 0.57836,-0.78918 1,-1 0.29814,-0.14907 0.7643,0.2357 1,0 0.2357,-0.2357 -0.2357,-0.7643 0,-1 0.2357,-0.2357 0.70186,0.14907 1,0 0.42164,-0.21082 0.57836,-0.78918 1,-1 0.29814,-0.14907 0.7643,0.2357 1,0 0.2357,-0.2357 -0.2357,-0.7643 0,-1 0.2357,-0.2357 0.70186,0.14907 1,0 0.84327,-0.42163 1.15673,-1.57836 2,-2 0.29814,-0.14907 0.70186,0.14907 1,0 0.84327,-0.42163 1.15673,-1.57836 2,-2 0.29814,-0.14907 0.7643,0.2357 1,0 0.2357,-0.2357 -0.14907,-0.70185 0,-1 1.10553,-2.21105 0.62064,-0.31032 2,-1 4.16176,-2.08088 -1.06904,0.069 1,-2 0.2357,-0.2357 0.70186,0.14907 1,0 0.84327,-0.42163 1.15673,-1.57836 2,-2 0.29814,-0.14907 0.7643,0.2357 1,0 0.4714,-0.4714 -0.4714,-1.52859 0,-2 0.2357,-0.2357 0.7643,0.2357 1,0 0.4714,-0.4714 -0.4714,-1.52859 0,-2 0.2357,-0.2357 0.7643,0.2357 1,0 0.2357,-0.2357 0,-0.66666 0,-1 0,-0.33333 0,-0.66666 0,-1 0,-3 0,-6 0,-9 0,-2.33333 0,-4.66666 0,-7 0,-0.33333 0.2357,-0.7643 0,-1 -0.2357,-0.2357 -0.66667,0 -1,0 -0.33333,0 -0.66667,0 -1,0 -5,0 -10,0 -15,0 z"
       id="path5865"
       inkscape:connector-curvature="0" />
    <path
       style="fill:#ffd5d5;stroke:none;stroke-width:1px;stroke-linecap:butt;stroke-linejoin:miter;stroke-opacity:1;filter:url(#filter5879);opacity:0.86324786"
       d="m 370,532.36218 c -0.33333,0 -1,0.33334 -1,0 0,-0.33333 0.8151,-0.27735 1,0 1.24035,1.86052 1.81489,4.10382 3,6 0.49969,0.7995 1.47702,1.21554 2,2 0.1849,0.27735 -0.10541,0.68377 0,1 0.2357,0.70711 0.58655,1.37983 1,2 0.52298,0.78447 1.70186,1.10558 2,2 0.21082,0.63246 -0.16169,1.35324 0,2 0.18078,0.7231 0.81922,1.2769 1,2 0.16169,0.64676 -0.16169,1.35324 0,2 0.95463,3.81854 1.70192,0.40385 3,3 0.29814,0.59629 -0.4714,1.5286 0,2 0.2357,0.2357 0.7643,-0.2357 1,0 0.4714,0.47141 -0.4714,1.5286 0,2 0.2357,0.2357 0.7643,-0.2357 1,0 0.2357,0.2357 0,0.66667 0,1 0,0.33334 0,0.66667 0,1 0,3.33334 0,6.66667 0,10 0,4 0,8 0,12 0,1.00706 0.18434,5.44698 0,6 -0.14907,0.44722 -0.85093,0.55279 -1,1 -0.21082,0.63246 0.16169,1.35324 0,2 -0.18078,0.7231 -0.7643,1.2929 -1,2 -0.10541,0.31623 0.10541,0.68377 0,1 -0.2357,0.70711 -0.7643,1.2929 -1,2 -0.10541,0.31623 0.14907,0.70186 0,1 -0.42164,0.84328 -1.47702,1.21554 -2,2 -0.33333,0.66667 -0.66667,1.33334 -1,2 0,0.33334 0.14907,0.70186 0,1 -0.6,1.2 -2.4,1.8 -3,3 -0.29814,0.59629 0.4714,1.5286 0,2 -0.2357,0.2357 -0.70186,-0.14907 -1,0 -0.42164,0.21082 -0.66667,0.66667 -1,1 -0.33333,0.33334 -0.78918,0.57837 -1,1 -0.14907,0.29815 0.14907,0.70186 0,1 -0.21082,0.42164 -0.66667,0.66667 -1,1 -0.66667,0.66667 -1.43431,1.24576 -2,2 -0.44721,0.59629 -0.47295,1.47296 -1,2 -0.52705,0.52705 -1.29289,0.7643 -2,1 -0.31623,0.10541 -0.7643,-0.2357 -1,0 -0.2357,0.2357 0.2357,0.7643 0,1 -0.52705,0.52705 -1.47295,0.47296 -2,1 -0.2357,0.2357 0.2357,0.7643 0,1 -0.2357,0.2357 -0.66667,0 -1,0 -2,0 -4,0 -6,0 -0.45239,0 -5.7335,-0.13325 -6,0 -0.84327,0.42164 -1.15673,1.57837 -2,2 -9.65789,4.82895 1.86491,-1.2883 -5,1 -0.89443,0.29815 -1.15673,1.57837 -2,2 -0.29814,0.14907 -0.70186,-0.14907 -1,0 -0.84327,0.42164 -1.10557,1.70186 -2,2 -0.94868,0.31623 -2,0 -3,0 -1.66667,0 -3.33333,0 -5,0 -0.33333,0 -0.66667,0 -1,0 -0.33333,0 -0.7643,-0.2357 -1,0 -0.2357,0.2357 0,0.66667 0,1 0,0.33334 -0.2357,0.7643 0,1 0.2357,0.2357 0.7643,-0.2357 1,0 0.20444,0.20444 -0.19825,2.60351 0,3 0.21082,0.42164 0.85093,0.55279 1,1 0.18434,0.55302 0,4.99295 0,6 0,0.33334 -0.2357,0.7643 0,1 0.2357,0.2357 0.66667,0 1,0 0.33333,0 0.66667,0 1,0 4,0 8,0 12,0 2.34518,0 -0.4714,0.2357 2,-1 0.29814,-0.14907 0.70186,0.14907 1,0 0.42164,-0.21082 0.57836,-0.78918 1,-1 0.29814,-0.14907 0.70186,0.14907 1,0 0.42164,-0.21082 0.57836,-0.78918 1,-1 0.29814,-0.14907 0.7643,0.2357 1,0 0.2357,-0.2357 -0.2357,-0.7643 0,-1 0.20444,-0.20443 2.60351,0.19825 3,0 0.84327,-0.42163 1.15673,-1.57836 2,-2 0.59628,-0.29814 1.5286,0.47141 2,0 0.2357,-0.2357 -0.2357,-0.7643 0,-1 0.4714,-0.4714 1.40372,0.29815 2,0 0.42164,-0.21082 0.57836,-0.78918 1,-1 0.29814,-0.14907 0.70186,0.14907 1,0 0.84327,-0.42163 1.15673,-1.57836 2,-2 0.29814,-0.14907 0.70186,0.14907 1,0 0.42164,-0.21082 0.57836,-0.78918 1,-1 0.29814,-0.14907 0.70186,0.14907 1,0 0.84327,-0.42163 1.21554,-1.47702 2,-2 0.62017,-0.41345 1.37983,-0.58655 2,-1 0.39223,-0.26149 0.57836,-0.78918 1,-1 0.29814,-0.14907 0.70186,0.14907 1,0 0.84327,-0.42163 1.15673,-1.57836 2,-2 0.29814,-0.14907 0.70186,0.14907 1,0 0.84327,-0.42163 1.15673,-1.57836 2,-2 0.29814,-0.14907 0.70186,0.14907 1,0 0.84327,-0.42163 1.15673,-1.57836 2,-2 0.29814,-0.14907 0.7643,0.2357 1,0 0.2357,-0.2357 -0.2357,-0.7643 0,-1 0.4714,-0.4714 1.5286,0.47141 2,0 0.2357,-0.2357 -0.2357,-0.7643 0,-1 0.2357,-0.2357 0.67662,0.0809 1,0 1.02262,-0.25565 1.97738,-0.74434 3,-1 1.03443,-0.25861 6.61612,0 8,0 0.23763,0 3.77587,0.11207 4,0 1.38804,-0.69402 1,-1.77932 1,-3 0,-0.33333 -0.14907,-0.70185 0,-1 0.21082,-0.42163 0.66667,-0.66666 1,-1 0.33333,-0.33333 0.57836,-0.78918 1,-1 0.29814,-0.14907 0.70186,0.14907 1,0 0.42164,-0.21082 0.66667,-0.66666 1,-1 0.33333,-0.33333 0.78918,-0.57836 1,-1 0.15217,-0.30433 0,-2.54964 0,-3 0,-2.33333 0,-4.66666 0,-7 0,-8 0,-16 0,-24 0,-3.66666 0,-7.33333 0,-11 0,-1.14666 -0.25897,-2.96411 0,-4 0.18078,-0.7231 0.7643,-1.29289 1,-2 0.21082,-0.63245 0,-1.33333 0,-2 0,-0.24252 0.0322,-2.96784 0,-3 -0.2357,-0.2357 -0.7643,0.2357 -1,0 -0.2357,-0.2357 0.2357,-0.7643 0,-1 -0.2357,-0.2357 -0.66667,0 -1,0 -2,0 -4,0 -6,0 -0.33333,0 -0.70186,-0.14907 -1,0 -0.42164,0.21082 -0.57836,0.78918 -1,1 -0.25855,0.12928 -5.2912,0 -6,0 -0.24253,0 -2.96784,0.0322 -3,0 -0.2357,-0.2357 0.2357,-0.7643 0,-1 -0.2357,-0.2357 -0.7643,0.2357 -1,0 -0.27362,-0.27362 0.27124,-3.45751 0,-4 -0.21082,-0.42163 -0.78918,-0.57836 -1,-1 -0.14907,-0.29814 0.2357,-0.7643 0,-1 -0.2357,-0.2357 -0.70186,0.14907 -1,0 -0.42164,-0.21082 -0.66667,-0.66666 -1,-1 -0.33333,-0.33333 -0.78918,-0.57836 -1,-1 -0.14907,-0.29814 0.2357,-0.7643 0,-1 -0.2357,-0.2357 -0.7643,0.2357 -1,0 -0.2357,-0.2357 0.2357,-0.7643 0,-1 -0.2357,-0.2357 -0.7643,0.2357 -1,0 -0.2357,-0.2357 0.2357,-0.7643 0,-1 -0.2357,-0.2357 -0.7643,0.2357 -1,0 -0.2357,-0.2357 0.14907,-0.70185 0,-1 -0.6,-1.2 -2.4,-1.8 -3,-3 -0.14907,-0.29814 0.14907,-0.70185 0,-1 -0.21082,-0.42163 -0.78918,-0.57836 -1,-1 -0.29814,-0.59628 0.4714,-1.52859 0,-2 -0.2357,-0.2357 -0.7643,0.2357 -1,0 -0.2357,-0.2357 0.32686,-1.06537 0,-1 -1.7602,0.35204 -3.33333,1.33334 -5,2 z"
       id="path5873"
       inkscape:connector-curvature="0" />
    <path
       style="fill:#782121;stroke:none;stroke-width:1px;stroke-linecap:butt;stroke-linejoin:miter;stroke-opacity:1;filter:url(#filter5889)"
       d="m 350,522.36218 c 0,1 1,3 0,3 -1,0 0,-4 0,-3 0,3.33334 0,6.66667 0,10 0,0.52292 0.13147,3.73706 0,4 -0.21082,0.42164 -0.85093,0.55279 -1,1 -0.15246,0.45739 0.22249,3.55503 0,4 -0.21082,0.42164 -0.78918,0.57837 -1,1 -0.31735,0.6347 0.3242,4.6758 0,5 -0.2357,0.2357 -0.7643,-0.2357 -1,0 -0.4714,0.47141 0.4714,1.5286 0,2 -0.2357,0.2357 -0.85093,-0.29814 -1,0 -0.29814,0.59629 0,1.33334 0,2 0,0.33334 0.2357,0.7643 0,1 -0.2357,0.2357 -0.7643,-0.2357 -1,0 -0.2357,0.2357 0.10541,0.68377 0,1 -0.2357,0.70711 -0.47295,1.47296 -1,2 -0.2357,0.2357 -0.70186,-0.14907 -1,0 -0.42164,0.21082 -0.66667,0.66667 -1,1 -0.33333,0.33334 -0.78918,0.57837 -1,1 -0.14907,0.29815 0.14907,0.70186 0,1 -0.21082,0.42164 -0.66667,0.66667 -1,1 -0.33333,0.33334 -0.57836,0.78918 -1,1 -0.29814,0.14907 -0.7643,-0.2357 -1,0 -0.2357,0.2357 0.1849,0.72265 0,1 0.85569,4.63941 -2.15016,1.15017 -3,2 -0.2357,0.2357 0.14907,0.70186 0,1 -0.57321,1.14642 -2.08651,1.39101 -3,2 -0.39223,0.26149 -0.57836,0.78918 -1,1 -0.29814,0.14907 -0.70186,-0.14907 -1,0 -0.42164,0.21082 -0.57836,0.78918 -1,1 -0.2862,0.1431 -4.46579,0 -5,0 -3.33333,0 -6.66667,0 -10,0 -2.33333,0 -4.66667,0 -7,0 -0.66667,0 -1.33333,0 -2,0 -0.33333,0 -0.67662,0.0809 -1,0 -1.02262,-0.25565 -1.97738,-0.74434 -3,-1 -2,-0.5 0,1 -3,0 -0.44721,-0.14907 -0.55279,-0.85093 -1,-1 -1.26491,-0.42163 -2.73509,0.42164 -4,0 -0.44721,-0.14907 -0.55279,-0.85093 -1,-1 -0.63246,-0.21082 -1.33333,0 -2,0 -0.33333,0 -0.70186,0.14907 -1,0 -0.42164,-0.21082 -0.55279,-0.85093 -1,-1 -0.63246,-0.21082 -1.33333,0 -2,0 -0.33333,0 -0.70186,0.14907 -1,0 -0.42164,-0.21082 -0.55279,-0.85093 -1,-1 -0.63246,-0.21082 -1.40372,0.29815 -2,0 -0.29814,-0.14907 0.29814,-0.85093 0,-1 -0.59628,-0.29814 -1.36754,0.21082 -2,0 -0.44721,-0.14907 -0.57836,-0.78918 -1,-1 -0.29814,-0.14907 -0.70186,0.14907 -1,0 -0.84327,-0.42163 -1.15673,-1.57836 -2,-2 -0.29814,-0.14907 -0.70186,0.14907 -1,0 -0.42164,-0.21082 -0.57836,-0.78918 -1,-1 -0.29814,-0.14907 -0.70186,0.14907 -1,0 -1.2,-0.6 -1.8,-2.4 -3,-3 -0.29814,-0.14907 -0.70186,0.14907 -1,0 -4.16176,-2.08088 1.06904,0.069 -1,-2 -0.2357,-0.2357 -0.70186,0.14907 -1,0 -2.21105,-1.10552 -0.31032,-0.62064 -1,-2 -0.21082,-0.42163 -0.78918,-0.57836 -1,-1 -0.14907,-0.29814 0.2357,-0.7643 0,-1 -0.2357,-0.2357 -0.7643,0.2357 -1,0 -0.5,-0.5 0.5,-2.5 0,-3 -0.2357,-0.2357 -0.7643,0.2357 -1,0 -0.2357,-0.2357 0,-0.66666 0,-1 0,-2.66666 0,-5.33333 0,-8 0,-0.80503 -0.20922,-3.37234 0,-4 0.2357,-0.7071 0.7643,-1.29289 1,-2 0.35625,-1.06875 -0.42276,-4.15449 0,-5 0.14907,-0.29814 0.68377,0.10541 1,0 0.70711,-0.2357 1.58655,-0.37982 2,-1 0.3698,-0.5547 -0.21082,-1.36754 0,-2 1.04044,-3.12132 0.66667,0.33334 2,-1 3.90273,-3.90273 -0.23148,-0.53705 1,-3 0.21082,-0.42163 0.66667,-0.66666 1,-1 0.66667,-0.66666 1.47702,-1.21553 2,-2 0.1849,-0.27735 -0.14907,-0.70185 0,-1 0.21082,-0.42163 0.66667,-0.66666 1,-1 0.33333,-0.33333 0.60777,-0.73851 1,-1 0.62017,-0.41345 1.47295,-0.47295 2,-1 0.2357,-0.2357 -0.14907,-0.70185 0,-1 0.57321,-1.14641 2.08651,-1.39101 3,-2 0.42386,-0.28257 2.79312,-2.58625 3,-3 0.68968,-1.37935 -1.21105,-0.89447 1,-2 0.29814,-0.14907 0.7643,0.2357 1,0 2.06904,-2.06903 -3.16176,0.0809 1,-2 0.29814,-0.14907 0.7643,0.2357 1,0 0.2357,-0.2357 -0.2357,-0.7643 0,-1 0.2357,-0.2357 0.7643,0.2357 1,0 2.06904,-2.06903 -3.16176,0.0809 1,-2 2.66667,0 -0.33333,0.33334 1,-1 0.4714,-0.4714 1.5286,0.47141 2,0 0.2357,-0.2357 -0.2357,-0.7643 0,-1 0.2357,-0.2357 0.66667,0 1,0 2.66667,0 5.33333,0 8,0 2.33333,0 4.66667,0 7,0 0.33333,0 0.7643,-0.2357 1,0 0.2357,0.2357 0,0.66667 0,1 0,0.33334 0,0.66667 0,1 0,0.24253 0.0322,2.96784 0,3 -0.2357,0.2357 -0.70186,-0.14907 -1,0 -2.21105,1.10553 -0.31032,0.62065 -1,2 -0.42164,0.84328 -1.57836,1.15673 -2,2 0,2.66667 0.33333,-0.33333 -1,1 -0.2357,0.2357 0.2357,0.7643 0,1 -0.2357,0.2357 -0.7643,-0.2357 -1,0 -0.2357,0.2357 0.14907,0.70186 0,1 -0.42164,0.84328 -1.57836,1.15673 -2,2 -0.14907,0.29815 0.14907,0.70186 0,1 -0.42164,0.84328 -1.57836,1.15673 -2,2 -0.14907,0.29815 0.2357,0.7643 0,1 -2.06904,2.06904 0.0809,-3.16176 -2,1 -0.14907,0.29815 0.2357,0.7643 0,1 -0.4714,0.47141 -1.5286,-0.4714 -2,0 -0.2357,0.2357 0.14907,0.70186 0,1 -2.08088,4.16176 0.069,-1.06903 -2,1 -0.2357,0.2357 0.14907,0.70186 0,1 -0.21082,0.42164 -0.78918,0.57837 -1,1 -0.29814,0.59629 0.29814,1.40372 0,2 -2.08088,4.16176 0.069,-1.06903 -2,1 -0.4714,0.47141 0.4714,1.5286 0,2 -0.2357,0.2357 -0.7643,-0.2357 -1,0 -0.5,0.5 0.5,2.5 0,3 -0.2357,0.2357 -0.7643,-0.2357 -1,0 -0.2357,0.2357 0,0.66667 0,1 0,2 0,4 0,6 0,1.66667 0,3.33334 0,5 0,0.33334 -0.2357,0.7643 0,1 0.2357,0.2357 0.66667,0 1,0 0.33333,0 0.66667,0 1,0 3.66667,0 7.33333,0 11,0 1.66667,0 3.33333,0 5,0 0.33333,0 0.66667,0 1,0 0.33333,0 0.70186,-0.14907 1,0 0.42164,0.21082 0.57836,0.78918 1,1 0.59628,0.29815 1.5286,-0.4714 2,0 0.2357,0.2357 -0.2357,0.7643 0,1 0.0453,0.0453 4.5285,0 5,0 1.33333,0 2.66667,0 4,0 0.33333,0 1,0.33334 1,0 0,-0.4714 -0.78918,-0.57836 -1,-1 -0.14907,-0.29814 0,-0.66666 0,-1 0,-0.33333 -0.2357,-0.7643 0,-1 2.06904,-2.06903 -0.0809,3.16176 2,-1 0.29814,-0.59628 -0.4714,-1.52859 0,-2 0.2357,-0.2357 0.7643,0.2357 1,0 0.5,-0.5 -0.5,-2.5 0,-3 0.2357,-0.2357 0.7643,0.2357 1,0 0.2357,-0.2357 -0.14907,-0.70185 0,-1 2.08088,-4.16176 -0.069,1.06904 2,-1 0.2357,-0.2357 -0.2357,-0.7643 0,-1 0.4714,-0.4714 1.5286,0.47141 2,0 0.2357,-0.2357 -0.2357,-0.7643 0,-1 0.4714,-0.4714 1.5286,0.47141 2,0 0.2357,-0.2357 -0.2357,-0.7643 0,-1 0.2357,-0.2357 0.70186,0.14907 1,0 4.16176,-2.08088 -1.06904,0.069 1,-2 0.2357,-0.2357 0.7643,0.2357 1,0 0.4714,-0.4714 -0.4714,-1.52859 0,-2 0.2357,-0.2357 0.7643,0.2357 1,0 0.4714,-0.4714 -0.29814,-1.40371 0,-2 2.08088,-4.16176 -0.069,1.06904 2,-1 0.2357,-0.2357 -0.14907,-0.70185 0,-1 0.42164,-0.84327 1.57836,-1.15672 2,-2 0.14907,-0.29814 -0.14907,-0.70185 0,-1 1.10553,-2.21105 0.62064,-0.31032 2,-1 0.42164,-0.21082 0.57836,-0.78918 1,-1 0.36163,-0.18081 4.30446,0 5,0 0.33333,0 0.66667,0 1,0 0.33333,0 0.8285,-0.28583 1,0 0.92355,1.53925 1.33333,3.33334 2,5 z"
       id="path5883"
       inkscape:connector-curvature="0" />
    <path
       style="fill:#782121;stroke:none;stroke-width:1px;stroke-linecap:butt;stroke-linejoin:miter;stroke-opacity:1;filter:url(#filter5895)"
       d="m 220,512.36218 c -0.33333,-0.33333 -1.33333,-0.66666 -1,-1 0.33333,-0.33333 1.42164,0.78918 1,1 -1.52023,0.76012 -3.42189,0.36876 -5,1 -0.30949,0.1238 0.2357,0.7643 0,1 -0.2357,0.2357 -0.68377,-0.10541 -1,0 -0.70711,0.2357 -1.37983,0.58655 -2,1 -0.39223,0.26149 -0.60777,0.73851 -1,1 -0.62017,0.41345 -1.33333,0.66667 -2,1 -0.66667,0.33334 -1.29289,0.7643 -2,1 -2.97683,0.99228 2.05181,-2.36787 -3,1 -0.39223,0.26149 -0.57836,0.78918 -1,1 -0.29814,0.14907 -0.70186,-0.14907 -1,0 -0.42164,0.21082 -0.60777,0.73851 -1,1 -0.62017,0.41345 -1.47295,0.47296 -2,1 -0.2357,0.2357 0.2357,0.7643 0,1 -0.2357,0.2357 -0.7643,-0.2357 -1,0 -0.2357,0.2357 0.2357,0.7643 0,1 -0.4714,0.47141 -1.5286,-0.4714 -2,0 -1.33333,1.33334 2.12132,0.95956 -1,2 -0.63246,0.21082 -1.40372,-0.29814 -2,0 -0.29814,0.14907 0.14907,0.70186 0,1 -0.21082,0.42164 -0.57836,0.78918 -1,1 -0.59628,0.29815 -1.5286,-0.4714 -2,0 -0.2357,0.2357 0.2357,0.7643 0,1 -0.4714,0.47141 -1.5286,-0.4714 -2,0 -2.06904,2.06904 3.16176,-0.0809 -1,2 -0.29814,0.14907 -0.70186,-0.14907 -1,0 -0.42164,0.21082 -0.57836,0.78918 -1,1 -0.29814,0.14907 -0.7643,-0.2357 -1,0 -0.4714,0.47141 0.4714,1.5286 0,2 -0.2357,0.2357 -0.7643,-0.2357 -1,0 -0.2357,0.2357 0,0.66667 0,1 0,0.33334 0,0.66667 0,1 0,1.8968 -0.50029,4.49971 1,6 0.2357,0.2357 0.7643,-0.2357 1,0 2.06904,2.06904 -3.16176,-0.0809 1,2 0.29814,0.14907 0.7643,-0.2357 1,0 0.2357,0.2357 -0.2357,0.7643 0,1 0.4714,0.47141 1.70186,-0.59628 2,0 0.29814,0.59629 -0.29814,1.40372 0,2 0.14907,0.29815 0.70186,-0.14907 1,0 0.91532,0.45766 1.7564,2.26921 2,3 0.19409,0.58228 0,5.31193 0,6 0,1.66667 0,3.33334 0,5 0,0.66667 0.16169,1.35324 0,2 -0.36155,1.44621 -1.5286,2.58579 -2,4 -0.10541,0.31623 0.14907,0.70186 0,1 -0.21082,0.42164 -0.78918,0.57837 -1,1 -0.14907,0.29815 0.14907,0.70186 0,1 -0.21082,0.42164 -0.73851,0.60777 -1,1 -0.41345,0.62018 -0.58655,1.37983 -1,2 -0.26149,0.39223 -0.73851,0.60777 -1,1 -0.41345,0.62018 -0.66667,1.33334 -1,2 -0.33333,0.66667 -0.7643,1.2929 -1,2 -0.10541,0.31623 0.2357,0.7643 0,1 -0.52705,0.52705 -1.47295,0.47296 -2,1 -0.52705,0.52705 -0.61652,1.36087 -1,2 -0.61835,1.03058 -1.46252,1.92503 -2,3 -0.14907,0.29815 0.1849,0.72265 0,1 -1.04595,1.56893 -2.86863,2.49151 -4,4 -0.44721,0.59629 -0.47295,1.47296 -1,2 -0.52705,0.52705 -1.47295,0.47296 -2,1 -0.52705,0.52705 -0.47295,1.47296 -1,2 -0.52705,0.52705 -1.37983,0.58655 -2,1 -0.39223,0.26149 -0.66667,0.66667 -1,1 -0.33333,0.33334 -0.85093,0.55279 -1,1 -0.21082,0.63246 0.21082,1.36755 0,2 -0.14907,0.44722 -0.73851,0.60777 -1,1 -0.60899,0.91349 -0.85358,2.42679 -2,3 -0.29814,0.14907 -0.7643,-0.2357 -1,0 -0.2357,0.2357 0.14907,0.70186 0,1 -0.21082,0.42164 -0.66667,0.66667 -1,1 -0.33333,0.33334 -0.57836,0.78918 -1,1 -0.29814,0.14907 -0.7643,-0.2357 -1,0 -0.2357,0.2357 0.14907,0.70186 0,1 -2.08088,4.16176 0.069,-1.06903 -2,1 -0.4714,0.47141 0.4714,1.5286 0,2 -0.2357,0.2357 -0.66667,0 -1,0 0,0.33334 0.14907,0.70186 0,1 -0.13017,0.26035 -1.78173,1.21828 -1,2 0.0322,0.0322 2.75747,0 3,0 0.45036,0 2.69567,0.15217 3,0 0.42164,-0.21082 0.57836,-0.78918 1,-1 0.59628,-0.29814 1.5286,0.47141 2,0 0.2357,-0.2357 -0.2357,-0.7643 0,-1 0.2357,-0.2357 0.70186,0.14907 1,0 0.42164,-0.21082 0.57836,-0.78918 1,-1 0.29814,-0.14907 0.70186,0.14907 1,0 1.2,-0.6 1.8,-2.4 3,-3 0.29814,-0.14907 0.7643,0.2357 1,0 0.2357,-0.2357 -0.2357,-0.7643 0,-1 0.52705,-0.52704 1.29289,-0.7643 2,-1 0.31623,-0.10541 0.7643,0.2357 1,0 0.2357,-0.2357 -0.2357,-0.7643 0,-1 0.2357,-0.2357 0.66667,0 1,0 0.66667,0 1.33333,0 2,0 0.33333,0 0.66667,0 1,0 0.33333,0 0.70186,0.14907 1,0 0.84327,-0.42163 1.10557,-1.70185 2,-2 0.63246,-0.21082 1.40372,0.29815 2,0 0.29814,-0.14907 -0.14907,-0.70185 0,-1 0.21082,-0.42163 0.66667,-0.66666 1,-1 0.33333,-0.33333 0.57836,-0.78918 1,-1 0.29814,-0.14907 0.7643,0.2357 1,0 0.2357,-0.2357 -0.14907,-0.70185 0,-1 0.42164,-0.84327 1.57836,-1.15672 2,-2 0.14907,-0.29814 -0.2357,-0.7643 0,-1 0.2357,-0.2357 0.70186,0.14907 1,0 4.16176,-2.08088 -1.06904,0.069 1,-2 0.2357,-0.2357 0.7643,0.2357 1,0 0.52705,-0.52704 0.58655,-1.37982 1,-2 0.52298,-0.78446 1.57836,-1.15672 2,-2 0.29814,-0.59628 -0.4714,-1.52859 0,-2 0.2357,-0.2357 0.7643,0.2357 1,0 0.2357,-0.2357 -0.14907,-0.70185 0,-1 0.21082,-0.42163 0.78918,-0.57836 1,-1 0.29814,-0.59628 -0.29814,-1.40371 0,-2 0.21082,-0.42163 0.78918,-0.57836 1,-1 0.29814,-0.59628 -0.4714,-1.52859 0,-2 0.2357,-0.2357 0.7643,0.2357 1,0 0.4714,-0.4714 -0.4714,-1.52859 0,-2 0.2357,-0.2357 0.70186,0.14907 1,0 1.53158,-0.76579 0.78202,-1.78201 2,-3 0.52705,-0.52704 1.40372,-0.55278 2,-1 0.75425,-0.56568 1.21554,-1.47702 2,-2 0.27735,-0.1849 0.7643,0.2357 1,0 0.2357,-0.2357 -0.10541,-0.68377 0,-1 0.2357,-0.7071 0.47295,-1.47295 1,-2 0.2357,-0.2357 0.7643,0.2357 1,0 0.2357,-0.2357 0,-0.66666 0,-1 0,-0.33333 0,-0.66666 0,-1 0,-1.66666 0,-3.33333 0,-5 0,-0.66666 -0.21082,-1.36754 0,-2 0.33333,-0.66666 0.66667,-1.33333 1,-2 0.33333,0 0.7643,0.2357 1,0 0.0402,-0.0402 0,-3.63276 0,-4 0,-6 0,-12 0,-18 0,-0.24252 -0.0322,-2.96784 0,-3 0.2357,-0.2357 0.7643,0.2357 1,0 0.4714,-0.4714 -0.29814,-1.40371 0,-2 0.21082,-0.42163 0.78918,-0.57836 1,-1 0.14907,-0.29814 -0.14907,-0.70185 0,-1 0.21082,-0.42163 0.78918,-0.57836 1,-1 0.22249,-0.44497 -0.15246,-3.54261 0,-4 0.14907,-0.44721 0.78918,-0.57836 1,-1 0.12928,-0.25855 0,-5.2912 0,-6 0,-0.33333 -0.2357,-0.7643 0,-1 0.2357,-0.2357 0.66667,0 1,0 1.33333,-1.66666 2.66667,-3.33333 4,-5 z"
       id="path5893"
       inkscape:connector-curvature="0" />
  </g>
</svg>
